<?xml version="1.0" encoding="UTF-8"?>
<svg width="120px" height="40px" viewBox="0 0 120 40" version="1.1" xmlns="http://www.w3.org/2000/svg" xmlns:xlink="http://www.w3.org/1999/xlink">
    <title>livetype</title>
    <g id="Page-1" stroke="none" stroke-width="1" fill="none" fill-rule="evenodd">
        <g id="Frame" transform="translate(-9, -5)">
            <g id="livetype" transform="translate(9, 5)">
                <g id="Group" transform="translate(0, 0)" fill-rule="nonzero">
                    <g transform="translate(0, 0)" id="Path">
                        <path d="M110.443949,2.84216171e-14 L9.56144647,2.84216171e-14 C9.19371704,2.84216171e-14 8.83039997,2.84216171e-14 8.46364326,0.00212999308 C8.15663382,0.00412998658 7.85207122,0.0099399677 7.54211352,0.0148299518 C6.86874215,0.0227317297 6.19695433,0.081805994 5.53258802,0.191539377 C4.86915487,0.303661641 4.22650426,0.515044066 3.62637173,0.81853734 C3.02697317,1.12459806 2.47928557,1.52229258 2.00317773,1.99719351 C1.52457041,2.47075897 1.12561424,3.01813657 0.821650141,3.61827824 C0.516847112,4.21722541 0.305495708,4.8590525 0.194895594,5.52159205 C0.0832439757,6.18329481 0.0231632242,6.85262827 0.0151925302,7.52358555 C0.00588647871,7.83018455 0.00490372758,8.13780355 0,8.44444256 L0,31.5586274 C0.00490372758,31.8691264 0.00588647871,32.1699254 0.0151925302,32.4805244 C0.0231656684,33.1514484 0.083246421,33.8207485 0.194895594,34.4824179 C0.305190308,35.1453448 0.516554208,35.7875403 0.821650141,36.3867117 C1.12547623,36.9849127 1.52448849,37.5300742 2.00317773,38.0010065 C2.47748032,38.478019 3.02552193,38.8759841 3.62637173,39.1797027 C4.22649971,39.4840082 4.86908103,39.6966488 5.53258802,39.8105006 C6.19706727,39.919355 6.868786,39.9784533 7.54211352,39.9873 C7.85207122,39.9941 8.15663382,39.998 8.46364326,39.998 C8.83038994,40 9.1937371,40 9.56144647,40 L110.443949,40 C110.804358,40 111.170583,40 111.530992,39.998 C111.836547,39.998 112.149924,39.9941 112.45548,39.9873 C113.127534,39.9789238 113.797988,39.9198217 114.461094,39.8105006 C115.126742,39.6958474 115.771627,39.4832631 116.374651,39.1797027 C116.974959,38.8758082 117.522495,38.477854 117.996391,38.0010065 C118.473845,37.5282298 118.873709,36.9834671 119.181308,36.3867117 C119.484115,35.7871045 119.693467,35.1449603 119.802146,34.4824179 C119.913974,33.8206577 119.976187,33.1515065 119.988267,32.4805244 C119.992178,32.1699254 119.992178,31.8691264 119.992178,31.5586274 C120,31.1953286 120,30.8340298 120,30.464831 L120,9.53622901 C120,9.1700202 120,8.80674138 119.992178,8.44444256 C119.992178,8.13780355 119.992178,7.83018455 119.988267,7.52354555 C119.976189,6.85253017 119.913977,6.18334557 119.802146,5.52155205 C119.693164,4.8593958 119.483824,4.21761957 119.181308,3.61823824 C118.5623,2.41531823 117.580731,1.43615073 116.374651,0.81844734 C115.771625,0.515695704 115.126671,0.304369421 114.461094,0.191449378 C113.798103,0.0812325191 113.127579,0.0221376929 112.45548,0.0146899523 C112.149924,0.00980996812 111.836547,0.00394998716 111.530992,0.0019999935 C111.170583,2.84216171e-14 110.804358,2.84216171e-14 110.443949,2.84216171e-14 L110.443949,2.84216171e-14 Z" fill="#A6A6A6"></path>
                        <path d="M8.46853696,39.1250028 C8.16300164,39.1250028 7.86484698,39.1211029 7.56170837,39.1143029 C6.93373218,39.1061436 6.30722372,39.0516281 5.68732118,38.9512034 C5.10929334,38.8519319 4.54933974,38.6672688 4.02593026,38.4033052 C3.50732015,38.1415287 3.03430605,37.79828 2.62500849,37.3867085 C2.20978644,36.9799851 1.86409511,36.5082553 1.60163364,35.990213 C1.33628006,35.4688039 1.1526396,34.9099161 1.05710929,34.3330184 C0.953944847,33.7131353 0.89812861,33.0863357 0.890141878,32.4580245 C0.88378408,32.2471252 0.875460779,31.5449275 0.875460779,31.5449275 L0.875460779,8.44444256 C0.875460779,8.44444256 0.884325596,7.7530348 0.890192018,7.54990546 C0.897839253,6.92258955 0.953330918,6.29676263 1.05618671,5.67784155 C1.15189335,5.09936351 1.33567599,4.53886412 1.60117235,4.01574695 C1.86266921,3.49806248 2.20644133,3.02598046 2.61916213,2.61780149 C3.03141903,2.20574425 3.50594622,1.86072807 4.02543888,1.59533482 C4.54764542,1.33221927 5.10654078,1.14885881 5.68340021,1.05139658 C6.3053386,0.949963051 6.93402206,0.895123175 7.56417528,0.887337116 L8.46902834,0.875127156 L111.526078,0.875127156 L112.441741,0.887827115 C113.066163,0.895226288 113.689135,0.94957692 114.305358,1.05041659 C114.888057,1.14910133 115.452777,1.3337412 115.980949,1.59826481 C117.021681,2.13310912 117.868505,2.97928327 118.402729,4.01818694 C118.663987,4.53769282 118.844935,5.0936202 118.939431,5.66710158 C119.043512,6.29110093 119.101762,6.92184584 119.113719,7.55430545 C119.116627,7.83750453 119.116627,8.14170354 119.116627,8.44444256 C119.124549,8.81944134 119.124549,9.17637018 119.124549,9.53622901 L119.124549,30.464831 C119.124549,30.8281298 119.124549,31.1826287 119.116627,31.5400275 C119.116627,31.8652264 119.116627,32.1631255 119.112716,32.4697245 C119.101018,33.0908981 119.043739,33.7103847 118.941336,34.3232184 C118.847764,34.9042777 118.665123,35.4675279 118.39982,35.993213 C118.135504,36.5056325 117.791797,36.973276 117.381369,37.3789085 C116.971704,37.7926918 116.497855,38.1379488 115.978041,38.4014052 C115.451332,38.667398 114.887444,38.852744 114.305358,38.9512034 C113.685503,39.0521641 113.058934,39.1066831 112.430911,39.1143029 C112.137189,39.1211029 111.829628,39.1250028 111.530992,39.1250028 L110.443949,39.1270028 L8.46853696,39.1250028 Z" fill="#000000"></path>
                    </g>
                    <g id="_Group_" transform="translate(9.9996, 8.7204)" fill="#FFFFFF">
                        <g id="_Group_2" transform="translate(0, 0)">
                            <path d="M14.8388527,11.5803724 C14.860771,9.883907 15.7526537,8.31688908 17.2020282,7.42832586 C16.2835296,6.12022288 14.8002567,5.32059106 13.1996639,5.27065287 C11.5157098,5.09439344 9.88318973,6.2754796 9.02507751,6.2754796 C8.15035881,6.2754796 6.82916022,5.28815281 5.40644746,5.31734272 C3.53452844,5.37765094 1.83169742,6.41323464 0.92097074,8.04520385 C-1.01845853,11.393613 0.428181217,16.314647 2.285992,19.0212482 C3.21549407,20.3465939 4.30181513,21.8270391 5.72324431,21.7745392 C7.11419816,21.7170094 7.63369245,20.8900621 9.31269267,20.8900621 C10.9761093,20.8900621 11.4635037,21.7745392 12.9137736,21.7411593 C14.4063319,21.7169994 15.3467144,20.4099237 16.2436052,19.072028 C16.9114509,18.1276708 17.4253571,17.0839504 17.7662878,15.9795281 C15.9935818,15.2318618 14.8409217,13.4997205 14.8388527,11.5803724 L14.8388527,11.5803724 Z" id="_Path_"></path>
                            <path d="M12.0995543,3.49060866 C12.913359,2.51640373 13.3142898,1.26422835 13.217203,0 C11.9738903,0.130220064 10.8254176,0.722777326 10.0006185,1.65960461 C9.18616719,2.58391063 8.77356806,3.79315035 8.85369775,5.02098368 C10.1136818,5.03392041 11.3100101,4.46986869 12.0995543,3.49060866 L12.0995543,3.49060866 Z" id="_Path_2"></path>
                        </g>
                        <g id="Group" transform="translate(24.5244, 9.1507)">
                            <path d="M7.89710729,9.26857988 L3.15041934,9.26857988 L2.01050825,12.625019 L0,12.625019 L4.49598614,0.207059327 L6.58483369,0.207059327 L11.0808198,12.625019 L9.0360256,12.625019 L7.89710729,9.26857988 Z M3.64202555,7.71975491 L7.40455844,7.71975491 L5.54975608,2.27250261 L5.49785078,2.27250261 L3.64202555,7.71975491 Z" id="Shape"></path>
                            <path d="M20.7906216,8.09866368 C20.7906216,10.9121345 19.2805342,12.7197387 17.0016948,12.7197387 C15.8237826,12.7811831 14.7142537,12.1659512 14.1450679,11.1357438 L14.1019472,11.1357438 L14.1019472,15.6201092 L12.2383302,15.6201092 L12.2383302,3.57132839 L14.0422401,3.57132839 L14.0422401,5.0771835 L14.076516,5.0771835 C14.6709885,4.05343474 15.7817139,3.43846766 16.9674189,3.4765987 C19.2716795,3.4766087 20.7906216,5.2930028 20.7906216,8.09866368 Z M18.8750993,8.09866368 C18.8750993,6.26566964 17.92517,5.06058355 16.4758026,5.06058355 C15.0518965,5.06058355 14.0941354,6.29104955 14.0941354,8.09866368 C14.0941354,9.92287775 15.0518965,11.1445538 16.4758026,11.1445538 C17.92518,11.1445538 18.8750993,9.94826767 18.8750993,8.09866368 Z" id="Shape"></path>
                            <path d="M30.7834357,8.09866368 C30.7834357,10.9121345 29.2733483,12.7197387 26.9945089,12.7197387 C25.8165967,12.7811831 24.7070678,12.1659512 24.137882,11.1357438 L24.0947613,11.1357438 L24.0947613,15.6201092 L22.2311442,15.6201092 L22.2311442,3.57132839 L24.035014,3.57132839 L24.035014,5.0771835 L24.06929,5.0771835 C24.6637668,4.05343536 25.7744964,3.4384719 26.9602028,3.4766087 C29.2645336,3.4766087 30.7834357,5.2930028 30.7834357,8.09866368 Z M28.8679233,8.09866368 C28.8679233,6.26566964 27.9179841,5.06058355 26.4686167,5.06058355 C25.0447106,5.06058355 24.0869494,6.29104955 24.0869494,8.09866368 C24.0869494,9.92287775 25.0447106,11.1445538 26.4686167,11.1445538 C27.9179941,11.1445538 28.8679233,9.94826767 28.8679233,8.09866368 L28.8679233,8.09866368 Z" id="Shape"></path>
                            <path d="M37.3878642,9.16506021 C37.5259508,10.3965062 38.7256091,11.2050536 40.3649483,11.2050536 C41.9357557,11.2050536 43.0658693,10.3964662 43.0658693,9.28610982 C43.0658693,8.32224295 42.3842712,7.74511483 40.7703833,7.34959611 L39.1564953,6.96189737 C36.869824,6.41111916 35.8082522,5.34471263 35.8082522,3.61424825 C35.8082522,1.47167522 37.6806839,0 40.339487,0 C42.9708533,0 44.7747532,1.47167522 44.8354732,3.61424825 L42.9542067,3.61424825 C42.8415915,2.37499228 41.8142956,1.62695471 40.3130229,1.62695471 C38.8117503,1.62695471 37.7844645,2.38379225 37.7844645,3.48534867 C37.7844645,4.36327582 38.4406013,4.87987414 40.0456745,5.27534286 L41.4176753,5.61128176 C43.9726778,6.21381981 45.0342496,7.23727648 45.0342496,9.05365058 C45.0342496,11.376883 43.1784645,12.8319583 40.2268417,12.8319583 C37.4652007,12.8319583 35.6006109,11.4110629 35.4801537,9.16497021 L37.3878642,9.16506021 Z" id="Path"></path>
                            <path d="M49.0562689,1.42875536 L49.0562689,3.57132839 L50.7827822,3.57132839 L50.7827822,5.04300361 L49.0562689,5.04300361 L49.0562689,10.0341974 C49.0562689,10.8095849 49.4019667,11.1709137 50.1609213,11.1709137 C50.3658865,11.1673497 50.5705201,11.1529964 50.7739675,11.1279138 L50.7739675,12.5907991 C50.4327406,12.6543784 50.0859122,12.6831733 49.7388397,12.6767388 C47.900694,12.6767388 47.1838372,11.988261 47.1838372,10.2324067 L47.1838372,5.04300361 L45.8637417,5.04300361 L45.8637417,3.57132839 L47.1838172,3.57132839 L47.1838172,1.42875536 L49.0562689,1.42875536 Z" id="Path"></path>
                            <path d="M51.7826913,8.09866368 C51.7826913,5.25004294 53.4651312,3.46000875 56.0886956,3.46000875 C58.7210647,3.46000875 60.3956727,5.25000294 60.3956727,8.09866368 C60.3956727,10.9551044 58.7298794,12.7373186 56.0886956,12.7373186 C53.4484445,12.7373186 51.7826913,10.9550944 51.7826913,8.09866368 Z M58.4967969,8.09866368 C58.4967969,6.14457003 57.598773,4.99125378 56.0886856,4.99125378 C54.5785982,4.99125378 53.681557,6.15336 53.681557,8.09866368 C53.681557,10.0605673 54.5785982,11.2051036 56.0886856,11.2051036 C57.598773,11.2051036 58.4967969,10.0605673 58.4967969,8.09866368 L58.4967969,8.09866368 Z" id="Shape"></path>
                            <path d="M61.9321539,3.57132839 L63.7095997,3.57132839 L63.7095997,5.11232338 L63.7527204,5.11232338 C64.0005904,4.12031501 64.9120986,3.43758038 65.9365639,3.4765887 C66.1513292,3.47584093 66.3655019,3.49909937 66.5750714,3.54592848 L66.5750714,5.28420283 C66.3039433,5.20158641 66.0211102,5.16365451 65.7377273,5.17190319 C65.1898417,5.1497387 64.6596101,5.36747729 64.2862555,5.76794723 C63.9129009,6.16841717 63.7337238,6.71160893 63.7957709,7.25489642 L63.7957709,12.624999 L61.9321539,12.624999 L61.9321539,3.57132839 Z" id="Path"></path>
                            <path d="M75.167455,9.96583761 C74.9167532,11.6093823 73.3116699,12.7373086 71.258071,12.7373086 C68.6168873,12.7373086 66.977538,10.9726643 66.977538,8.14162354 C66.977538,5.30179277 68.6257019,3.45999876 71.1797317,3.45999876 C73.6916436,3.45999876 75.2712656,5.18069316 75.2712656,7.92580424 L75.2712656,8.56252217 L68.8587844,8.56252217 L68.8587844,8.67482181 C68.7989142,9.34885124 69.0323118,10.0160469 69.4996083,10.5066958 C69.9669048,10.9973447 70.6230609,11.2641567 71.3011717,11.2392635 C72.2055457,11.3237628 73.0581934,10.8059025 73.3978612,9.96582761 L75.167455,9.96583761 Z M68.8675814,7.26370639 L73.4066658,7.26370639 C73.440486,6.65803585 73.2193981,6.06576337 72.7966683,5.62957325 C72.3739384,5.19338313 71.787895,4.95282431 71.1797317,4.96585386 C70.5667575,4.9622061 69.9777175,5.20287772 69.5435369,5.63437493 C69.1093562,6.06587215 68.8660109,6.6524413 68.8675814,7.26370639 L68.8675814,7.26370639 Z" id="Shape"></path>
                        </g>
                    </g>
                </g>
                <g id="_Group_4" transform="translate(35.7711, 8.4371)" fill="#FFFFFF" fill-rule="nonzero">
                    <path d="M2.16132044,0.293999045 C2.95248178,0.23738341 3.72740683,0.537545681 4.27280265,1.1118682 C4.81819846,1.68619073 5.07657733,2.47413675 4.9768222,3.25882941 C4.9768222,5.16507321 3.94365995,6.26081965 2.16132044,6.26081965 L0,6.26081965 L0,0.293999045 L2.16132044,0.293999045 Z M0.929351642,5.41698239 L2.05750983,5.41698239 C2.62291458,5.45068429 3.17345033,5.22854201 3.55625395,4.81223615 C3.93905757,4.39593029 4.11337466,3.82978197 4.0308039,3.27098937 C4.10736725,2.71451571 3.9305398,2.15303922 3.54868532,1.74012833 C3.16683085,1.32721743 2.61990989,1.1060827 2.05750983,1.1372063 L0.929351642,1.1372063 L0.929351642,5.41698239 Z" id="Shape"></path>
                    <path d="M6.02663105,4.00732698 C5.94920142,3.20021465 6.33730442,2.41910407 7.02817071,1.99159089 C7.71903699,1.56407772 8.59321781,1.56407772 9.28408409,1.99159089 C9.97495038,2.41910407 10.3630534,3.20021465 10.2856237,4.00732698 C10.3645266,4.81530661 9.97677781,5.59793219 9.28529896,6.02636571 C8.59382011,6.45479924 7.71843469,6.45479924 7.02695583,6.02636571 C6.33547698,5.59793219 5.94772823,4.81530661 6.02663105,4.00732698 Z M9.36899773,4.00732698 C9.36899773,3.03126015 8.92927677,2.460462 8.15759651,2.460462 C7.382968,2.460462 6.94720813,3.03126015 6.94720813,4.00733698 C6.94720813,4.99122378 7.38299809,5.55762194 8.15759651,5.55762194 C8.92929682,5.55762194 9.36899773,4.98730379 9.36899773,4.00732698 L9.36899773,4.00732698 Z" id="Shape"></path>
                    <polygon id="Path" points="15.9469822 6.26072965 15.0225243 6.26072965 14.0892517 2.94433043 14.0187443 2.94433043 13.0893826 6.26072965 12.1737293 6.26072965 10.9290349 1.75781429 11.8329353 1.75781429 12.6418398 5.19380312 12.7084362 5.19380312 13.6368151 1.75781429 14.4917484 1.75781429 15.4201274 5.19380312 15.4906347 5.19380312 16.2956182 1.75781429 17.186783 1.75781429"></polygon>
                    <path d="M18.2336536,1.75781429 L19.0915251,1.75781429 L19.0915251,2.47314196 L19.1581216,2.47314196 C19.3897047,1.94647161 19.9308476,1.62430219 20.5056438,1.67089457 C20.9507066,1.63752645 21.3868365,1.80778403 21.6908926,2.13359514 C21.9949487,2.45940624 22.1339352,2.90541432 22.0686092,3.34568913 L22.0686092,6.26067965 L21.1774445,6.26067965 L21.1774445,3.5688484 C21.1774445,2.84522075 20.8621117,2.48535192 20.2030367,2.48535192 C19.9011575,2.47133109 19.6081917,2.58947415 19.4009459,2.80880765 C19.1937002,3.02814115 19.0928439,3.3267902 19.1248183,3.62645821 L19.1248183,6.26072965 L18.2336536,6.26072965 L18.2336536,1.75781429 Z" id="Path"></path>
                    <polygon id="Path" points="23.4886044 0 24.3797691 0 24.3797691 6.26071965 23.4886044 6.26071965"></polygon>
                    <path d="M25.6185871,4.00732698 C25.5412169,3.20016185 25.9293811,2.4190315 26.6202987,1.99151173 C27.3112163,1.56399196 28.185442,1.56399196 28.8763596,1.99151173 C29.5672771,2.4190315 29.9554413,3.20016185 29.8780712,4.00732698 C29.9568738,4.81533554 29.569054,5.597939 28.8775408,6.02635365 C28.1860276,6.45476831 27.3106306,6.45476831 26.6191175,6.02635365 C25.9276043,5.597939 25.5397845,4.81533554 25.6185871,4.00732698 L25.6185871,4.00732698 Z M28.9609538,4.00732698 C28.9609538,3.03126015 28.5212328,2.460462 27.7495526,2.460462 C26.9749241,2.460462 26.5391642,3.03126015 26.5391642,4.00733698 C26.5391642,4.99122378 26.9749541,5.55762194 27.7495526,5.55762194 C28.5212428,5.55762194 28.9609538,4.98730379 28.9609538,4.00732698 L28.9609538,4.00732698 Z" id="Shape"></path>
                    <path d="M30.8162475,4.98730379 C30.8162475,4.17675643 31.4214618,3.70947794 32.4957491,3.64306816 L33.7189033,3.57275839 L33.7189033,3.18408965 C33.7189033,2.7085012 33.4035705,2.43995207 32.7944453,2.43995207 C32.2969627,2.43995207 31.9522477,2.62208148 31.8533307,2.94044044 L30.9905655,2.94044044 C31.0816405,2.16700296 31.8112229,1.67091457 32.8355704,1.67091457 C33.9676496,1.67091457 34.6061571,2.23291274 34.6061571,3.18408965 L34.6061571,6.26073965 L33.7482855,6.26073965 L33.7482855,5.62793171 L33.6777781,5.62793171 C33.3864111,6.09005654 32.8682656,6.36014256 32.3214412,6.33492941 C31.9381042,6.3746911 31.555789,6.25089034 31.2690108,5.99413296 C30.9822326,5.73737558 30.8177578,5.37162585 30.8162475,4.98730379 L30.8162475,4.98730379 Z M33.7189033,4.60253504 L33.7189033,4.22607627 L32.6162064,4.29638604 C31.9943455,4.3378859 31.712306,4.54882522 31.712306,4.94579393 C31.712306,5.35106261 32.0648529,5.58690184 32.54965,5.58690184 C32.8366395,5.61587161 33.1231318,5.52745709 33.3435429,5.34189823 C33.5639539,5.15633937 33.6994103,4.88952517 33.7189033,4.60253504 Z" id="Shape"></path>
                    <path d="M35.7773958,4.00732698 C35.7773958,2.5844816 36.5108992,1.68311453 37.651783,1.68311453 C38.2278725,1.65664475 38.7674337,1.96446648 39.0365195,2.47311196 L39.1031159,2.47311196 L39.1031159,0 L39.9942807,0 L39.9942807,6.26071965 L39.1403301,6.26071965 L39.1403301,5.54929196 L39.0698227,5.54929196 C38.7803967,6.05371731 38.234188,6.35633582 37.6517931,6.33492941 C36.5030673,6.33497941 35.7773958,5.43359234 35.7773958,4.00732698 Z M36.6979729,4.00732698 C36.6979729,4.96240387 37.1494368,5.537112 37.9044804,5.537112 C38.6555831,5.537112 39.1197926,4.9541139 39.1197926,4.01123696 C39.1197926,3.07276001 38.6507094,2.48145194 37.9044804,2.48145194 C37.1543004,2.48145194 36.6979428,3.06006005 36.6979428,4.00732698 L36.6979729,4.00732698 Z" id="Shape"></path>
                    <path d="M43.6813623,4.00732698 C43.6039327,3.20021465 43.9920357,2.41910407 44.682902,1.99159089 C45.3737683,1.56407772 46.2479491,1.56407772 46.9388154,1.99159089 C47.6296817,2.41910407 48.0177847,3.20021465 47.940355,4.00732698 C48.0192579,4.81530661 47.6315091,5.59793219 46.9400302,6.02636571 C46.2485514,6.45479924 45.373166,6.45479924 44.6816871,6.02636571 C43.9902083,5.59793219 43.6024595,4.81530661 43.6813623,4.00732698 L43.6813623,4.00732698 Z M47.023719,4.00732698 C47.023719,3.03126015 46.584008,2.460462 45.8123278,2.460462 C45.0376993,2.460462 44.6019394,3.03126015 44.6019394,4.00733698 C44.6019394,4.99122378 45.0377294,5.55762194 45.8123278,5.55762194 C46.5840181,5.55762194 47.023719,4.98730379 47.023719,4.00732698 Z" id="Shape"></path>
                    <path d="M49.1360824,1.75781429 L49.9939539,1.75781429 L49.9939539,2.47314196 L50.0605503,2.47314196 C50.2921335,1.94647161 50.8332764,1.62430219 51.4080726,1.67089457 C51.8531353,1.63752645 52.2892653,1.80778403 52.5933214,2.13359514 C52.8973775,2.45940624 53.036364,2.90541432 52.971038,3.34568913 L52.971038,6.26067965 L52.0798733,6.26067965 L52.0798733,3.5688484 C52.0798733,2.84522075 51.7645405,2.48535192 51.1054655,2.48535192 C50.8035862,2.47133109 50.5106204,2.58947415 50.3033747,2.80880765 C50.096129,3.02814115 49.9952726,3.3267902 50.0272471,3.62645821 L50.0272471,6.26072965 L49.1360824,6.26072965 L49.1360824,1.75781429 Z" id="Path"></path>
                    <path d="M58.0066247,0.636727931 L58.0066247,1.77832422 L58.9849535,1.77832422 L58.9849535,2.52686179 L58.0066247,2.52686179 L58.0066247,4.84228426 C58.0066247,5.31396273 58.2015103,5.52050206 58.6451322,5.52050206 C58.7587057,5.5201396 58.8721652,5.51329174 58.9849535,5.49999213 L58.9849535,6.24021972 C58.824915,6.26877034 58.6627672,6.28395962 58.5001964,6.28562957 C57.5091421,6.28562957 57.1144772,5.9379707 57.1144772,5.06981352 L57.1144772,2.52682179 L56.3976305,2.52682179 L56.3976305,1.77828422 L57.1144772,1.77828422 L57.1144772,0.636727931 L58.0066247,0.636727931 Z" id="Path"></path>
                    <path d="M60.2022211,0 L61.0855539,0 L61.0855539,2.48144194 L61.1560613,2.48144194 C61.3987685,1.95016222 61.9493823,1.62758225 62.5329157,1.67480456 C62.9754511,1.65079192 63.4056772,1.82479778 63.7064101,2.14942687 C64.0071429,2.47405595 64.1470593,2.91549616 64.0880492,3.3535091 L64.0880492,6.26072965 L63.1959919,6.26072965 L63.1959919,3.57273839 C63.1959919,2.85350073 62.8600515,2.48924191 62.2303988,2.48924191 C61.9203599,2.46388566 61.6149049,2.57628259 61.3956945,2.79638441 C61.176484,3.01648624 61.0658707,3.32184951 61.093426,3.6308382 L61.093426,6.26072965 L60.2022612,6.26072965 L60.2022211,0 Z" id="Path"></path>
                    <path d="M69.2842856,5.0449136 C69.0343931,5.89429033 68.2101275,6.4430821 67.3276381,6.34763937 C66.7255164,6.36348952 66.146844,6.11461083 65.7451563,5.66703674 C65.3434687,5.21946266 65.1593746,4.61844093 65.2417188,4.02343692 C65.1615618,3.42677934 65.344966,2.82479455 65.7444169,2.37343924 C66.1438677,1.92208393 66.7200593,1.66577134 67.3237171,1.67090457 C68.5801645,1.67090457 69.3381464,2.52690179 69.3381464,3.94089719 L69.3381464,4.25098618 L66.1495301,4.25098618 L66.1495301,4.30078602 C66.1213131,4.63492508 66.2357522,4.96543161 66.4647032,5.21102376 C66.6936542,5.45661592 67.0158732,5.59450574 67.3521166,5.59078183 C67.788109,5.64297634 68.2125178,5.4273154 68.426414,5.0448836 L69.2842856,5.0449136 Z M66.14951,3.59374832 L68.4303049,3.59374832 C68.4530214,3.28814975 68.3452653,2.98719536 68.1335912,2.76505011 C67.9219171,2.54290485 67.6260109,2.42022836 67.3187934,2.42725211 C67.0074137,2.42335104 66.7076505,2.54501296 66.4875026,2.7646399 C66.2673547,2.98426683 66.1454819,3.28324306 66.1495301,3.59374832 L66.14951,3.59374832 Z" id="Shape"></path>
                </g>
            </g>
        </g>
    </g>
</svg>