<?xml version="1.0" encoding="UTF-8"?>
<svg width="136px" height="40px" viewBox="0 0 136 40" version="1.1" xmlns="http://www.w3.org/2000/svg" xmlns:xlink="http://www.w3.org/1999/xlink">
    <title>artwork</title>
    <g id="Page-1" stroke="none" stroke-width="1" fill="none" fill-rule="evenodd">
        <g id="Frame-Copy" transform="translate(-9, -5)">
            <g id="artwork" transform="translate(9, 5)">
                <rect id="Rectangle" fill="#000000" fill-rule="nonzero" x="0" y="0" width="136" height="40" rx="5.0370369"></rect>
                <path d="M130.962963,0.8 C133.296119,0.8 135.194074,2.684 135.194074,5 L135.194074,35 C135.194074,37.316 133.296119,39.2 130.962963,39.2 L5.03703704,39.2 C2.70388148,39.2 0.805925926,37.316 0.805925926,35 L0.805925926,5 C0.805925926,2.684 2.70388148,0.8 5.03703704,0.8 L130.962963,0.8 M130.962963,0 L5.03703704,0 C2.26666667,0 0,2.25 0,5 L0,35 C0,37.75 2.26666667,40 5.03703704,40 L130.962963,40 C133.733333,40 136,37.75 136,35 L136,5 C136,2.25 133.733333,0 130.962963,0 L130.962963,0 Z" id="Shape" fill="#A6A6A6" fill-rule="nonzero"></path>
                <g id="Group" transform="translate(41.6583, 6.865)" fill="#FFFFFF" fill-rule="nonzero" stroke="#FFFFFF" stroke-width="0.201481481">
                    <path d="M6.11093333,3.378 C6.11093333,4.216 5.8610963,4.883 5.36041481,5.381 C4.79223704,5.973 4.05078519,6.269 3.14008889,6.269 C2.26767407,6.269 1.52622222,5.969 0.915733333,5.369 C0.305244444,4.768 0,4.024 0,3.136 C0,2.248 0.305244444,1.503 0.915733333,0.903 C1.52521481,0.302 2.26767407,0.002 3.14008889,0.002 C3.57327407,0.002 3.98731852,0.086 4.38121481,0.253 C4.77511111,0.421 5.09042963,0.644 5.32616296,0.923 L4.79525926,1.451 C4.39531852,0.976 3.84426667,0.739 3.14008889,0.739 C2.50340741,0.739 1.95336296,0.961 1.48894815,1.405 C1.02453333,1.849 0.79282963,2.426 0.79282963,3.135 C0.79282963,3.844 1.02453333,4.421 1.48894815,4.865 C1.95336296,5.309 2.50340741,5.531 3.14008889,5.531 C3.81505185,5.531 4.37819259,5.308 4.8285037,4.861 C5.12065185,4.57 5.2898963,4.165 5.33522963,3.646 L3.14008889,3.646 L3.14008889,2.925 L6.06862222,2.925 C6.09682963,3.082 6.11093333,3.232 6.11093333,3.378 L6.11093333,3.378 Z" id="Path"></path>
                    <polygon id="Path" points="10.7550815 0.872 8.00284444 0.872 8.00284444 2.774 10.4850963 2.774 10.4850963 3.495 8.00284444 3.495 8.00284444 5.397 10.7550815 5.397 10.7550815 6.134 7.22613333 6.134 7.22613333 0.134 10.7550815 0.134 10.7550815 0.871"></polygon>
                    <polygon id="Path" points="14.030163 6.135 13.2534519 6.135 13.2534519 0.872 11.565037 0.872 11.565037 0.135 15.7185778 0.135 15.7185778 0.872 14.030163 0.872"></polygon>
                    <polygon id="Path" points="18.7236741 6.135 18.7236741 0.135 19.4993778 0.135 19.4993778 6.135"></polygon>
                    <polygon id="Path" points="22.9447111 6.135 22.168 6.135 22.168 0.872 20.4795852 0.872 20.4795852 0.135 24.6331259 0.135 24.6331259 0.872 22.9447111 0.872"></polygon>
                    <path d="M32.4959407,5.36 C31.9015704,5.967 31.1631407,6.269 30.2796444,6.269 C29.3961481,6.269 28.6577185,5.966 28.0643556,5.36 C27.4699852,4.754 27.1738074,4.012 27.1738074,3.135 C27.1738074,2.258 27.4699852,1.516 28.0643556,0.91 C28.6577185,0.303 29.3961481,0 30.2796444,0 C31.1581037,0 31.8945185,0.305 32.4919111,0.914 C33.0882963,1.523 33.3864889,2.263 33.3864889,3.135 C33.3864889,4.012 33.0893037,4.754 32.4959407,5.36 Z M28.6375704,4.857 C29.0848593,5.307 29.6318815,5.531 30.2796444,5.531 C30.9274074,5.531 31.4744296,5.306 31.9217185,4.857 C32.3690074,4.407 32.5936593,3.833 32.5936593,3.135 C32.5936593,2.437 32.3690074,1.862 31.9217185,1.413 C31.475437,0.963 30.9274074,0.739 30.2796444,0.739 C29.6318815,0.739 29.0848593,0.964 28.6375704,1.413 C28.1912889,1.863 27.966637,2.437 27.966637,3.135 C27.966637,3.833 28.1912889,4.408 28.6375704,4.857 Z" id="Shape"></path>
                    <polygon id="Path" points="34.4765037 6.135 34.4765037 0.135 35.4224593 0.135 38.3600593 4.802 38.3933037 4.802 38.3600593 3.646 38.3600593 0.135 39.1367704 0.135 39.1367704 6.135 38.3258074 6.135 35.2522074 1.241 35.218963 1.241 35.2522074 2.397 35.2522074 6.134 34.4754963 6.134"></polygon>
                </g>
                <path d="M68.6407111,21.752 C66.2712889,21.752 64.3400889,23.54 64.3400889,26.005 C64.3400889,28.454 66.2712889,30.258 68.6407111,30.258 C71.0101333,30.258 72.9413333,28.454 72.9413333,26.005 C72.9413333,23.54 71.0101333,21.752 68.6407111,21.752 L68.6407111,21.752 Z M68.6407111,28.582 C67.342163,28.582 66.2229333,27.519 66.2229333,26.004 C66.2229333,24.473 67.3431704,23.426 68.6407111,23.426 C69.9382519,23.426 71.0584889,24.473 71.0584889,26.004 C71.0584889,27.518 69.9382519,28.582 68.6407111,28.582 Z M59.2587259,21.752 C56.8893037,21.752 54.9581037,23.54 54.9581037,26.005 C54.9581037,28.454 56.8893037,30.258 59.2587259,30.258 C61.6281481,30.258 63.5593481,28.454 63.5593481,26.005 C63.5593481,23.54 61.6281481,21.752 59.2587259,21.752 L59.2587259,21.752 Z M59.2587259,28.582 C57.9601778,28.582 56.8399407,27.519 56.8399407,26.004 C56.8399407,24.473 57.9601778,23.426 59.2587259,23.426 C60.5572741,23.426 61.6765037,24.473 61.6765037,26.004 C61.6765037,27.518 60.5562667,28.582 59.2587259,28.582 Z M48.0976593,23.057 L48.0976593,24.861 L52.4476444,24.861 C52.3176889,25.876 51.9771852,26.617 51.457363,27.133 C50.8247111,27.761 49.8344296,28.454 48.0976593,28.454 C45.4199704,28.454 43.3265778,26.311 43.3265778,23.653 C43.3265778,20.995 45.4199704,18.852 48.0976593,18.852 C49.5422815,18.852 50.597037,19.416 51.375763,20.141 L52.6581926,18.868 C51.5712,17.837 50.1265778,17.048 48.0976593,17.048 C44.4296889,17.048 41.3460148,20.012 41.3460148,23.653 C41.3460148,27.294 44.4296889,30.258 48.0976593,30.258 C50.0782222,30.258 51.5712,29.614 52.7397926,28.405 C53.9406222,27.213 54.3143704,25.537 54.3143704,24.184 C54.3143704,23.765 54.2821333,23.379 54.2166519,23.056 L48.0976593,23.056 L48.0976593,23.057 Z M93.7412741,24.458 C93.3846519,23.508 92.2966519,21.751 90.0733037,21.751 C87.8660741,21.751 86.0325926,23.475 86.0325926,26.004 C86.0325926,28.388 87.8499556,30.257 90.2848593,30.257 C92.2482963,30.257 93.3846519,29.065 93.8551111,28.372 L92.3943704,27.405 C91.9077926,28.114 91.2418963,28.581 90.2848593,28.581 C89.3278222,28.581 88.6458074,28.146 88.2075852,27.292 L93.9367111,24.94 L93.7422815,24.457 L93.7412741,24.458 Z M87.8983111,25.876 C87.8499556,24.233 89.1807407,23.395 90.1377778,23.395 C90.8842667,23.395 91.5169185,23.765 91.7284741,24.297 L87.8983111,25.876 L87.8983111,25.876 Z M83.2410667,30 L85.1239111,30 L85.1239111,17.498 L83.2410667,17.498 L83.2410667,30 Z M80.1563852,22.702 L80.0919111,22.702 C79.6698074,22.203 78.8588444,21.751 77.8363259,21.751 C75.6935704,21.751 73.7301333,23.62 73.7301333,26.02 C73.7301333,28.404 75.6935704,30.257 77.8363259,30.257 C78.8588444,30.257 79.6698074,29.806 80.0919111,29.29 L80.1563852,29.29 L80.1563852,29.902 C80.1563852,31.529 79.2799407,32.399 77.8675556,32.399 C76.7150815,32.399 76.0008296,31.577 75.7086815,30.885 L74.0696296,31.562 C74.5400889,32.69 75.7902815,34.075 77.8675556,34.075 C80.0747852,34.075 81.9415111,32.786 81.9415111,29.645 L81.9415111,22.009 L80.1563852,22.009 L80.1563852,22.702 L80.1563852,22.702 Z M77.9985185,28.582 C76.6999704,28.582 75.6129778,27.503 75.6129778,26.02 C75.6129778,24.522 76.6999704,23.426 77.9985185,23.426 C79.2809481,23.426 80.2873481,24.522 80.2873481,26.02 C80.2873481,27.502 79.2809481,28.582 77.9985185,28.582 Z M102.560119,17.499 L98.056,17.499 L98.056,30 L99.9358222,30 L99.9358222,25.264 L102.560119,25.264 C104.643437,25.264 106.691496,23.767 106.691496,21.381 C106.691496,18.995 104.643437,17.499 102.560119,17.499 L102.560119,17.499 Z M102.608474,23.524 L99.9348148,23.524 L99.9348148,19.239 L102.608474,19.239 C104.013807,19.239 104.811674,20.394 104.811674,21.382 C104.811674,22.351 104.013807,23.525 102.608474,23.525 L102.608474,23.524 Z M114.225896,21.729 C112.864889,21.729 111.455526,22.324 110.872237,23.643 L112.541511,24.335 C112.898133,23.643 113.562015,23.418 114.259141,23.418 C115.231289,23.418 116.219556,23.997 116.235674,25.026 L116.235674,25.155 C115.89517,24.962 115.166815,24.672 114.275259,24.672 C112.477037,24.672 110.64557,25.653 110.64557,27.487 C110.64557,29.16 112.119407,30.237 113.772563,30.237 C115.035852,30.237 115.732978,29.674 116.170193,29.015 L116.234667,29.015 L116.234667,29.98 L118.049007,29.98 L118.049007,25.187 C118.049007,22.967 116.379733,21.729 114.224889,21.729 L114.225896,21.729 Z M113.99923,28.58 C113.383704,28.58 112.524385,28.275 112.524385,27.519 C112.524385,26.554 113.593244,26.184 114.517037,26.184 C115.343111,26.184 115.73197,26.361 116.234667,26.602 C116.088593,27.76 115.084207,28.58 113.99923,28.58 Z M124.659615,22.002 L122.50477,27.422 L122.440296,27.422 L120.204859,22.002 L118.17997,22.002 L121.53363,29.577 L119.62157,33.791 L121.581985,33.791 L126.750993,22.002 L124.660622,22.002 L124.659615,22.002 Z M107.728119,30 L109.607941,30 L109.607941,17.499 L107.728119,17.499 L107.728119,30 Z" id="Shape" fill="#FFFFFF" fill-rule="nonzero"></path>
                <g id="Group" transform="translate(10.0459, 7.141)" fill-rule="nonzero">
                    <path d="M10.8245926,12.283 L0.0987259259,23.583 C0.0987259259,23.583 0.0997333333,23.588 0.100740741,23.59 C0.430162963,24.817 1.55845926,25.72 2.89831111,25.72 C3.43324444,25.72 3.93694815,25.576 4.36811852,25.324 L4.40237037,25.304 L16.4751407,18.389 L10.8245926,12.283 Z" id="Path" fill="#EA4335"></path>
                    <path d="M21.6753778,10.359 L21.6653037,10.352 L16.4529778,7.352 L10.5808,12.539 L16.4731259,18.387 L21.6572444,15.418 C22.5659259,14.931 23.1834667,13.98 23.1834667,12.883 C23.1834667,11.793 22.5749926,10.847 21.6743704,10.358 L21.6753778,10.359 Z" id="Path" fill="#FBBC04"></path>
                    <path d="M0.0987259259,2.136 C0.0342518519,2.372 0,2.62 0,2.876 L0,22.844 C0,23.1 0.0332444444,23.348 0.0987259259,23.583 L11.1933037,12.572 L0.0987259259,2.136 Z" id="Path" fill="#4285F4"></path>
                    <path d="M10.9041778,12.86 L16.4549926,7.351 L4.39632593,0.411 C3.9581037,0.15 3.44634074,0 2.89931852,0 C1.55946667,0 0.429155556,0.905 0.0997333333,2.134 C0.0997333333,2.134 0.0997333333,2.136 0.0997333333,2.137 L10.9051852,12.861 L10.9041778,12.86 Z" id="Path" fill="#34A853"></path>
                </g>
            </g>
        </g>
    </g>
</svg>